<mxfile host="app.diagrams.net" agent="Mozilla/5.0 (Windows NT 10.0; Win64; x64) AppleWebKit/537.36 (KHTML, like Gecko) Chrome/134.0.0.0 Safari/537.36" version="26.1.1">
  <diagram name="Page-1" id="UbBygipPK2wlHCW_J2im">
    <mxGraphModel dx="1004" dy="587" grid="1" gridSize="10" guides="1" tooltips="1" connect="1" arrows="1" fold="1" page="1" pageScale="1" pageWidth="1100" pageHeight="1700" math="0" shadow="0">
      <root>
        <mxCell id="0" />
        <mxCell id="1" parent="0" />
        <mxCell id="vN4tsAmOebe0pU0p0FwG-1" value="Initialize Sensors" style="rounded=0;whiteSpace=wrap;html=1;" vertex="1" parent="1">
          <mxGeometry x="390" y="40" width="180" height="20" as="geometry" />
        </mxCell>
        <mxCell id="vN4tsAmOebe0pU0p0FwG-2" value="Configure I2C/SPI Interfaces" style="rounded=0;whiteSpace=wrap;html=1;" vertex="1" parent="1">
          <mxGeometry x="390" y="80" width="180" height="20" as="geometry" />
        </mxCell>
        <mxCell id="vN4tsAmOebe0pU0p0FwG-3" value="Enter Sensor Loop" style="rounded=0;whiteSpace=wrap;html=1;" vertex="1" parent="1">
          <mxGeometry x="390" y="120" width="180" height="20" as="geometry" />
        </mxCell>
        <mxCell id="vN4tsAmOebe0pU0p0FwG-4" value="Read Ultrasonic Sensor&lt;div&gt;(Wait for 1s Timer)&lt;/div&gt;" style="rounded=0;whiteSpace=wrap;html=1;" vertex="1" parent="1">
          <mxGeometry x="390" y="190" width="180" height="40" as="geometry" />
        </mxCell>
        <mxCell id="vN4tsAmOebe0pU0p0FwG-5" value="Calculate Distance" style="rounded=0;whiteSpace=wrap;html=1;" vertex="1" parent="1">
          <mxGeometry x="590" y="200" width="180" height="20" as="geometry" />
        </mxCell>
        <mxCell id="vN4tsAmOebe0pU0p0FwG-6" value="Read Temperature &amp;amp; Humidity&lt;div&gt;(Wait for 1s Timer)&lt;/div&gt;" style="rounded=0;whiteSpace=wrap;html=1;" vertex="1" parent="1">
          <mxGeometry x="390" y="250" width="180" height="40" as="geometry" />
        </mxCell>
        <mxCell id="vN4tsAmOebe0pU0p0FwG-9" value="Read Air Quality&lt;div&gt;(Wait for 1s Timer)&lt;/div&gt;" style="rounded=0;whiteSpace=wrap;html=1;" vertex="1" parent="1">
          <mxGeometry x="390" y="310" width="180" height="40" as="geometry" />
        </mxCell>
        <mxCell id="vN4tsAmOebe0pU0p0FwG-10" value="Check Touch Sensor&lt;div&gt;(Check Continuously)&lt;/div&gt;" style="rounded=0;whiteSpace=wrap;html=1;" vertex="1" parent="1">
          <mxGeometry x="390" y="370" width="180" height="40" as="geometry" />
        </mxCell>
        <mxCell id="vN4tsAmOebe0pU0p0FwG-11" value="Read Sensor Data" style="text;html=1;align=center;verticalAlign=middle;whiteSpace=wrap;rounded=0;" vertex="1" parent="1">
          <mxGeometry x="430" y="160" width="110" height="30" as="geometry" />
        </mxCell>
        <mxCell id="vN4tsAmOebe0pU0p0FwG-13" value="" style="endArrow=classic;html=1;rounded=0;exitX=0.5;exitY=1;exitDx=0;exitDy=0;" edge="1" parent="1" source="vN4tsAmOebe0pU0p0FwG-1">
          <mxGeometry width="50" height="50" relative="1" as="geometry">
            <mxPoint x="440" y="270" as="sourcePoint" />
            <mxPoint x="480" y="80" as="targetPoint" />
          </mxGeometry>
        </mxCell>
        <mxCell id="vN4tsAmOebe0pU0p0FwG-14" value="" style="endArrow=classic;html=1;rounded=0;exitX=0.5;exitY=1;exitDx=0;exitDy=0;entryX=0.5;entryY=0;entryDx=0;entryDy=0;" edge="1" parent="1" source="vN4tsAmOebe0pU0p0FwG-2" target="vN4tsAmOebe0pU0p0FwG-3">
          <mxGeometry width="50" height="50" relative="1" as="geometry">
            <mxPoint x="540" y="190" as="sourcePoint" />
            <mxPoint x="590" y="140" as="targetPoint" />
          </mxGeometry>
        </mxCell>
        <mxCell id="vN4tsAmOebe0pU0p0FwG-15" value="" style="endArrow=classic;html=1;rounded=0;exitX=0.5;exitY=1;exitDx=0;exitDy=0;entryX=0.25;entryY=0;entryDx=0;entryDy=0;" edge="1" parent="1" source="vN4tsAmOebe0pU0p0FwG-3">
          <mxGeometry width="50" height="50" relative="1" as="geometry">
            <mxPoint x="540" y="190" as="sourcePoint" />
            <mxPoint x="480" y="160" as="targetPoint" />
          </mxGeometry>
        </mxCell>
        <mxCell id="vN4tsAmOebe0pU0p0FwG-20" value="" style="endArrow=classic;html=1;rounded=0;exitX=1;exitY=0.5;exitDx=0;exitDy=0;" edge="1" parent="1" source="vN4tsAmOebe0pU0p0FwG-4" target="vN4tsAmOebe0pU0p0FwG-5">
          <mxGeometry width="50" height="50" relative="1" as="geometry">
            <mxPoint x="530" y="300" as="sourcePoint" />
            <mxPoint x="580" y="250" as="targetPoint" />
          </mxGeometry>
        </mxCell>
        <mxCell id="vN4tsAmOebe0pU0p0FwG-21" value="" style="rounded=0;whiteSpace=wrap;html=1;dashed=1;fillColor=none;" vertex="1" parent="1">
          <mxGeometry x="380" y="160" width="400" height="260" as="geometry" />
        </mxCell>
        <mxCell id="vN4tsAmOebe0pU0p0FwG-22" value="Package Sensor Data" style="rounded=0;whiteSpace=wrap;html=1;" vertex="1" parent="1">
          <mxGeometry x="390" y="440" width="180" height="20" as="geometry" />
        </mxCell>
        <mxCell id="vN4tsAmOebe0pU0p0FwG-23" value="Send to System Control Task" style="rounded=0;whiteSpace=wrap;html=1;" vertex="1" parent="1">
          <mxGeometry x="390" y="480" width="180" height="20" as="geometry" />
        </mxCell>
        <mxCell id="vN4tsAmOebe0pU0p0FwG-25" value="" style="endArrow=classic;html=1;rounded=0;exitX=0.25;exitY=1;exitDx=0;exitDy=0;entryX=0.5;entryY=0;entryDx=0;entryDy=0;" edge="1" parent="1" source="vN4tsAmOebe0pU0p0FwG-21" target="vN4tsAmOebe0pU0p0FwG-22">
          <mxGeometry width="50" height="50" relative="1" as="geometry">
            <mxPoint x="500" y="500" as="sourcePoint" />
            <mxPoint x="550" y="450" as="targetPoint" />
          </mxGeometry>
        </mxCell>
        <mxCell id="vN4tsAmOebe0pU0p0FwG-26" value="" style="endArrow=classic;html=1;rounded=0;exitX=0.5;exitY=1;exitDx=0;exitDy=0;" edge="1" parent="1" source="vN4tsAmOebe0pU0p0FwG-22" target="vN4tsAmOebe0pU0p0FwG-23">
          <mxGeometry width="50" height="50" relative="1" as="geometry">
            <mxPoint x="500" y="500" as="sourcePoint" />
            <mxPoint x="550" y="450" as="targetPoint" />
          </mxGeometry>
        </mxCell>
        <mxCell id="vN4tsAmOebe0pU0p0FwG-27" value="Wait for Next Cycle" style="text;html=1;align=center;verticalAlign=middle;whiteSpace=wrap;rounded=0;" vertex="1" parent="1">
          <mxGeometry x="830" y="290" width="150" height="30" as="geometry" />
        </mxCell>
        <mxCell id="vN4tsAmOebe0pU0p0FwG-29" value="" style="endArrow=none;html=1;rounded=0;exitX=1;exitY=0.5;exitDx=0;exitDy=0;" edge="1" parent="1" source="vN4tsAmOebe0pU0p0FwG-23">
          <mxGeometry width="50" height="50" relative="1" as="geometry">
            <mxPoint x="600" y="470" as="sourcePoint" />
            <mxPoint x="900" y="490" as="targetPoint" />
          </mxGeometry>
        </mxCell>
        <mxCell id="vN4tsAmOebe0pU0p0FwG-30" value="" style="endArrow=none;html=1;rounded=0;" edge="1" parent="1">
          <mxGeometry width="50" height="50" relative="1" as="geometry">
            <mxPoint x="900" y="490" as="sourcePoint" />
            <mxPoint x="900" y="130" as="targetPoint" />
          </mxGeometry>
        </mxCell>
        <mxCell id="vN4tsAmOebe0pU0p0FwG-31" value="" style="endArrow=classic;html=1;rounded=0;entryX=1;entryY=0.5;entryDx=0;entryDy=0;" edge="1" parent="1" target="vN4tsAmOebe0pU0p0FwG-3">
          <mxGeometry width="50" height="50" relative="1" as="geometry">
            <mxPoint x="900" y="130" as="sourcePoint" />
            <mxPoint x="660" y="220" as="targetPoint" />
          </mxGeometry>
        </mxCell>
      </root>
    </mxGraphModel>
  </diagram>
</mxfile>
